{
  "accessors": [
    {
      "bufferView": 2,
      "componentType": 5126,
      "count": 21689,
      "max": [
        25.395126342773438,
        45.249813079833984,
        32.61625671386719
      ],
      "min": [
        -25.35665512084961,
        -5.50197172164917,
        -32.630126953125
      ],
      "type": "VEC3"
    },
    {
      "bufferView": 2,
      "byteOffset": 260268,
      "componentType": 5126,
      "count": 21689,
      "max": [
        1.0,
        0.9999584555625916,
        1.0
      ],
      "min": [
        -1.0,
        -0.999958336353302,
        -1.0
      ],
      "type": "VEC3"
    },
    {
      "bufferView": 3,
      "componentType": 5126,
      "count": 21689,
      "max": [
        0.9999985694885254,
        0.9999985694885254,
        1.0,
        1.0
      ],
      "min": [
        -0.9999916553497314,
        -1.0,
        -1.0,
        -1.0
      ],
      "type": "VEC4"
    },
    {
      "bufferView": 1,
      "componentType": 5126,
      "count": 21689,
      "max": [
        0.9977845549583435,
        0.9914178848266602
      ],
      "min": [
        0.004995822906494141,
        0.004334055818617344
      ],
      "type": "VEC2"
    },
    {
      "bufferView": 0,
      "componentType": 5125,
      "count": 45996,
      "type": "SCALAR"
    },
    {
      "bufferView": 2,
      "byteOffset": 520536,
      "componentType": 5126,
      "count": 25602,
      "max": [
        11.831002235412598,
        31.651540756225586,
        29.889245986938477
      ],
      "min": [
        -11.831002235412598,
        7.974791526794434,
        -29.87971305847168
      ],
      "type": "VEC3"
    },
    {
      "bufferView": 2,
      "byteOffset": 827760,
      "componentType": 5126,
      "count": 25602,
      "max": [
        1.0,
        1.0,
        1.0
      ],
      "min": [
        -1.0,
        -1.0,
        -1.0
      ],
      "type": "VEC3"
    },
    {
      "bufferView": 3,
      "byteOffset": 347024,
      "componentType": 5126,
      "count": 25602,
      "max": [
        1.0,
        1.0,
        1.0,
        1.0
      ],
      "min": [
        -1.0,
        -1.0,
        -1.0,
        -1.0
      ],
      "type": "VEC4"
    },
    {
      "bufferView": 1,
      "byteOffset": 173512,
      "componentType": 5126,
      "count": 25602,
      "max": [
        0.9984301328659058,
        0.9959757328033447
      ],
      "min": [
        0.0018283617682754993,
        0.002118229866027832
      ],
      "type": "VEC2"
    },
    {
      "bufferView": 0,
      "byteOffset": 183984,
      "componentType": 5125,
      "count": 46863,
      "type": "SCALAR"
    }
  ],
  "asset": {
    "extras": {
      "author": "filobus (https://sketchfab.com/filobus)",
      "license": "CC-BY-4.0 (http://creativecommons.org/licenses/by/4.0/)",
      "source": "https://sketchfab.com/3d-models/dyson-sphere-e8597f3d79684f9785933f102240dc1b",
      "title": "Dyson Sphere"
    },
    "generator": "Sketchfab-12.68.0",
    "version": "2.0"
  },
  "bufferViews": [
    {
      "buffer": 0,
      "byteLength": 371436,
      "name": "floatBufferViews",
      "target": 34963
    },
    {
      "buffer": 0,
      "byteLength": 378328,
      "byteOffset": 371436,
      "byteStride": 8,
      "name": "floatBufferViews",
      "target": 34962
    },
    {
      "buffer": 0,
      "byteLength": 1134984,
      "byteOffset": 749764,
      "byteStride": 12,
      "name": "floatBufferViews",
      "target": 34962
    },
    {
      "buffer": 0,
      "byteLength": 756656,
      "byteOffset": 1884748,
      "byteStride": 16,
      "name": "floatBufferViews",
      "target": 34962
    }
  ],
  "buffers": [
    {
      "byteLength": 2641404,
      "uri": "scene.bin"
    }
  ],
  "images": [
    {
      "uri": "textures/lambert2_baseColor.png"
    },
    {
      "uri": "textures/lambert2_metallicRoughness.png"
    },
    {
      "uri": "textures/lambert2_emissive.png"
    },
    {
      "uri": "textures/lambert2_normal.png"
    },
    {
      "uri": "textures/lambert4_baseColor.png"
    },
    {
      "uri": "textures/lambert4_metallicRoughness.png"
    },
    {
      "uri": "textures/lambert4_emissive.jpeg"
    },
    {
      "uri": "textures/lambert4_normal.png"
    }
  ],
  "materials": [
    {
      "alphaMode": "BLEND",
      "doubleSided": true,
      "emissiveFactor": [
        1.0,
        1.0,
        1.0
      ],
      "emissiveTexture": {
        "index": 2
      },
      "name": "lambert2",
      "normalTexture": {
        "index": 3
      },
      "occlusionTexture": {
        "index": 1
      },
      "pbrMetallicRoughness": {
        "baseColorTexture": {
          "index": 0
        },
        "metallicRoughnessTexture": {
          "index": 1
        }
      }
    },
    {
      "alphaMode": "BLEND",
      "doubleSided": true,
      "emissiveFactor": [
        1.0,
        1.0,
        1.0
      ],
      "emissiveTexture": {
        "index": 6
      },
      "name": "lambert4",
      "normalTexture": {
        "index": 7
      },
      "pbrMetallicRoughness": {
        "baseColorTexture": {
          "index": 4
        },
        "metallicRoughnessTexture": {
          "index": 5
        }
      }
    }
  ],
  "meshes": [
    {
      "name": "polySurface13_lambert2_0",
      "primitives": [
        {
          "attributes": {
            "NORMAL": 1,
            "POSITION": 0,
            "TANGENT": 2,
            "TEXCOORD_0": 3
          },
          "indices": 4,
          "material": 0,
          "mode": 4
        }
      ]
    },
    {
      "name": "pPlane8_lambert4_0",
      "primitives": [
        {
          "attributes": {
            "NORMAL": 6,
            "POSITION": 5,
            "TANGENT": 7,
            "TEXCOORD_0": 8
          },
          "indices": 9,
          "material": 1,
          "mode": 4
        }
      ]
    }
  ],
  "nodes": [
    {
      "children": [
        1
      ],
      "matrix": [
        1.3453172445297241,
        0.0,
        0.0,
        0.0,
        0.0,
        2.9872043606043433e-16,
        -1.3453172445297241,
        0.0,
        0.0,
        1.3453172445297241,
        2.9872043606043433e-16,
        0.0,
        0.0,
        0.0,
        0.0,
        1.0
      ],
      "name": "Sketchfab_model"
    },
    {
      "children": [
        2
      ],
      "matrix": [
        1.0,
        0.0,
        0.0,
        0.0,
        0.0,
        0.0,
        1.0,
        0.0,
        0.0,
        -1.0,
        0.0,
        0.0,
        0.0,
        0.0,
        0.0,
        1.0
      ],
      "name": "fbe9478031624b99888858f092028399.fbx"
    },
    {
      "children": [
        3,
        5,
        7,
        9
      ],
      "name": "RootNode"
    },
    {
      "children": [
        4
      ],
      "matrix": [
        2.220446049250313e-16,
        0.0,
        1.0,
        0.0,
        0.0,
        1.0,
        0.0,
        0.0,
        -1.0,
        0.0,
        2.220446049250313e-16,
        0.0,
        0.285919189453125,
        19.705841064453125,
        -1000.0999755859375,
        1.0
      ],
      "name": "back"
    },
    {
      "name": "Object_4"
    },
    {
      "children": [
        6
      ],
      "matrix": [
        1.0,
        0.0,
        0.0,
        0.0,
        0.0,
        1.0,
        0.0,
        0.0,
        0.0,
        0.0,
        1.0,
        0.0,
        -1000.0999755859375,
        20.018802642822266,
        -0.6769410371780396,
        1.0
      ],
      "name": "left"
    },
    {
      "name": "Object_6"
    },
    {
      "children": [
        8
      ],
      "name": "polySurface13"
    },
    {
      "mesh": 0,
      "name": "polySurface13_lambert2_0"
    },
    {
      "children": [
        10
      ],
      "name": "pPlane8"
    },
    {
      "mesh": 1,
      "name": "pPlane8_lambert4_0"
    }
  ],
  "samplers": [
    {
      "magFilter": 9729,
      "minFilter": 9987,
      "wrapS": 10497,
      "wrapT": 10497
    }
  ],
  "scene": 0,
  "scenes": [
    {
      "name": "Sketchfab_Scene",
      "nodes": [
        0
      ]
    }
  ],
  "textures": [
    {
      "sampler": 0,
      "source": 0
    },
    {
      "sampler": 0,
      "source": 1
    },
    {
      "sampler": 0,
      "source": 2
    },
    {
      "sampler": 0,
      "source": 3
    },
    {
      "sampler": 0,
      "source": 4
    },
    {
      "sampler": 0,
      "source": 5
    },
    {
      "sampler": 0,
      "source": 6
    },
    {
      "sampler": 0,
      "source": 7
    }
  ]
}
